<?xml version="1.0" standalone="no"?><!DOCTYPE svg PUBLIC "-//W3C//DTD SVG 1.1//EN" "http://www.w3.org/Graphics/SVG/1.1/DTD/svg11.dtd"><svg t="1674464205672" class="icon" viewBox="0 0 1024 1024" version="1.1" xmlns="http://www.w3.org/2000/svg" p-id="1989" xmlns:xlink="http://www.w3.org/1999/xlink" width="200" height="200"><path d="M702.754286 1024c-53.885714 0-107.84-16.948571-156.057143-49.017143-44.365714-29.52-81.862857-71.108571-105.588572-117.108571-12.571429-24.354286-15.337143-52.937143-8.114285-82.685715 5.862857-24.331429 18.342857-49.291429 36.948571-74.228571 34.537143-46.297143 88.56-89.805714 152.102857-122.514286 65.977143-33.965714 134.857143-52.674286 194.057143-52.674285 90.148571 0 125.462857 42.445714 138.48 67.748571 17.851429 34.594286 36.937143 90.022857 36.937143 141.714286A288.765714 288.765714 0 0 1 702.754286 1024z" fill="#25467A" p-id="1990"></path><path d="M408.274286 1024C252.994286 1024 149.851429 1009.942857 101.714286 982.228571c-20.057143-11.542857-32.651429-32.925714-33.68-57.142857L32.48 83.794286v-1.005715c0-9.84 3.177143-34.377143 32.548571-49.622857 7.828571-4.057143 17.2-7.382857 29.52-10.48 18.662857-4.685714 44.571429-8.8 76.834286-12.228571C234.902857 3.714286 318.982857 0 408.137143 0S581.371429 3.714286 644.891429 10.457143c32.308571 3.428571 58.16 7.542857 76.834285 12.228571 12.308571 3.097143 21.714286 6.422857 29.508572 10.48 29.337143 15.245714 32.56 39.782857 32.56 49.622857v1.005715l-35.542857 841.291428c-1.028571 24.217143-13.588571 45.577143-33.611429 57.142857C666.617143 1009.942857 563.542857 1024 408.274286 1024z" fill="#25467A" p-id="1991"></path><path d="M700.285714 923.051429c-0.32 7.554286-4 14.342857-9.645714 17.6C669.714286 952.754286 603.942857 976 408.274286 976s-261.611429-23.268571-282.617143-35.428571c-5.714286-3.257143-9.36-10.034286-9.68-17.6L80.48 82.788571h655.314286z" fill="#FEF8E2" p-id="1992"></path><path d="M80.48 82.788571a327.657143 34.788571 0 1 0 655.314286 0 327.657143 34.788571 0 1 0-655.314286 0Z" fill="#FDEFBA" p-id="1993"></path><path d="M408.285714 877.782857c-122.582857 0-192.765714-5.554286-232-10.914286-20.182857-2.754286-35.325714-17.668571-36.262857-35.622857L106.377143 186.194286h603.52l-33.691429 645.074285c-0.937143 17.954286-16.091429 32.868571-36.262857 35.622858-39.142857 5.348571-109.234286 10.891429-231.657143 10.891428z" fill="#FFBC00" p-id="1994"></path><path d="M106.377143 186.194286a301.76 36.148571 0 1 0 603.52 0 301.76 36.148571 0 1 0-603.52 0Z" fill="#FF9E00" p-id="1995"></path><path d="M408.102857 567.817143a69.291429 69.291429 0 0 1-69.188571-69.234286 13.851429 13.851429 0 0 1 27.68-0.822857v0.822857a41.52 41.52 0 1 0 83.028571 0 13.84 13.84 0 0 1 27.668572-0.822857v0.822857a69.291429 69.291429 0 0 1-69.188572 69.234286zM228.205714 387.908571a41.52 41.52 0 1 0 83.028572 0 41.52 41.52 0 1 0-83.028572 0zM504.971429 387.908571a41.52 41.52 0 1 0 83.028571 0.068572v-0.068572a41.52 41.52 0 1 0-83.028571 0z" fill="#25467A" p-id="1996"></path><path d="M214.377143 457.142857H159.085714a27.68 27.68 0 0 0 0 55.348572h55.382857a27.68 27.68 0 1 0 0-55.348572h-0.091428zM657.142857 457.142857h-55.314286a27.68 27.68 0 0 0 0 55.348572H657.142857a27.68 27.68 0 1 0 0-55.348572z" fill="#FCE68D" p-id="1997"></path><path d="M702.754286 998.857143c-48.914286 0-98.057143-15.497143-142.125715-44.811429-40.868571-27.188571-75.428571-65.428571-97.142857-107.691428-18.594286-36.125714-9.142857-82.422857 26.64-130.354286 32.297143-43.291429 83.257143-84.205714 143.462857-115.2 62.48-32.171429 127.314286-49.885714 182.548572-49.885714 56.925714 0 98.171429 19.222857 116.125714 54.114285 16.502857 32 34.148571 83.017143 34.148572 130.205715A263.611429 263.611429 0 0 1 702.754286 998.857143z" fill="#25467A" p-id="1998"></path><path d="M943.52 735.234286c0 132.971429-107.794286 240.765714-240.765714 240.765714-93.257143 0-178.994286-62.582857-218.982857-140.125714l428.137142-220.388572c17.028571 33.028571 31.611429 80.034286 31.611429 119.748572z" fill="#F29312" p-id="1999"></path><path d="M483.786461 835.851073a117.6 240.765714 62.76 1 0 428.128168-220.405961 117.6 240.765714 62.76 1 0-428.128168 220.405961Z" fill="#FDEFBA" p-id="2000"></path><path d="M719.805714 701.2l85.348572-108.342857a11.52 11.52 0 0 1 9.017143-4.365714c33.702857 0.434286 58.525714 9.485714 71.611428 26.057142 1.565714 1.988571 0.582857 5.028571-2.034286 6.377143l-159.302857 82.011429c-3.725714 1.908571-6.651429 0.822857-4.64-1.737143zM663.36 627.097143c41.485714-19.817143 83.497143-32.64 121.062857-36.982857 3.931429-0.457143 6.125714 3.428571 3.691429 6.514285l-82.914286 105.257143c-2.011429 2.56-6.96 4.022857-7.828571 2.285715l-36.571429-71.097143c-1.108571-2.057143 0.068571-4.777143 2.56-5.977143zM536.228571 718.457143c25.577143-28.571429 61.062857-55.897143 102.114286-78.502857a3.897143 3.897143 0 0 1 5.405714 1.211428l36.891429 71.657143c0.868571 1.702857-3.188571 4.868571-6.445714 5.028572l-135.28 6.388571a3.348571 3.348571 0 0 1-2.685715-5.782857zM497.337143 810.685714c-4.274286-19.965714 3.28-44.571429 21.977143-71.074285a8.937143 8.937143 0 0 1 6.777143-3.702858L665.142857 729.337143c3.257143-0.148571 2.445714 2.857143-1.28 4.777143l-156.045714 80.331428c-4.434286 2.285714-9.531429 0.411429-10.48-3.76zM578.057143 856.194286c-33.691429-0.434286-58.514286-9.485714-71.6-26.068572-1.565714-1.977143-0.582857-5.028571 2.034286-6.365714L667.794286 741.714286c3.725714-1.908571 6.651429-0.822857 4.64 1.737143l-85.348572 108.342857a11.52 11.52 0 0 1-9.028571 4.4zM728.868571 817.577143c-41.485714 19.828571-83.497143 32.651429-121.051428 36.994286-3.931429 0.457143-6.125714-3.428571-3.691429-6.514286L687.04 742.857143c2.011429-2.56 6.96-4.022857 7.828571-2.285714l36.571429 71.097142c1.131429 2.045714-0.011429 4.72-2.571429 5.908572zM718.045714 726.857143l135.28-6.388572a3.348571 3.348571 0 0 1 2.685715 5.782858c-25.577143 28.571429-61.051429 55.885714-102.114286 78.491428a3.885714 3.885714 0 0 1-5.405714-1.142857l-36.891429-71.657143c-0.88-1.782857 3.188571-4.948571 6.445714-5.085714zM728.377143 710.571429l156.045714-80.331429c4.445714-2.285714 9.577143-0.457143 10.48 3.76 4.285714 19.954286-3.28 44.571429-21.977143 71.074286a8.937143 8.937143 0 0 1-6.777143 3.702857l-139.051428 6.571428c-3.257143 0.16-2.445714-2.857143 1.28-4.777142z" fill="#F5A816" p-id="2001"></path></svg>